# xmcd
#
# Track frame offsets:
#	150
#	19347
#	35662
#	53662
#	71270
#	83185
#	99087
#	116375
#	134095
#	152172
#	167507
#	183260
#	200142
#	215127
#
# Disc length: 3076 seconds
#
# Revision: 1
# Processed by: cddbd v1.5.1PL0 Copyright (c) Steve Scherf et al.
# Submitted via: CDex 1.50Beta5
#
DISCID=c10c020e
DTITLE=織井茂子 - 懐かしの歌声名曲集
DYEAR=1994
DGENRE=
TTITLE0=君の名は
TTITLE1=黒百合の歌
TTITLE2=君は遥かな
TTITLE3=幸福と言う名の駅
TTITLE4=若者は夢を見る
TTITLE5=雨のオランダ坂
TTITLE6=知りもしないで
TTITLE7=夜がわらっている
TTITLE8=黒いコートの女
TTITLE9=南から南から
TTITLE10=燃やしてほしいの
TTITLE11=愛国の花
TTITLE12=コショロ物語
TTITLE13=静かな夜のビギン
EXTD=
EXTT0=
EXTT1=
EXTT2=
EXTT3=
EXTT4=
EXTT5=
EXTT6=
EXTT7=
EXTT8=
EXTT9=
EXTT10=
EXTT11=
EXTT12=
EXTT13=
PLAYORDER=
